<svg data-logo="logo" xmlns="http://www.w3.org/2000/svg" viewBox="0 0 585 42">
        <g style="opacity: 1;" id="logogram" transform="translate(0, 1) rotate(0)"><path d="M0 33L4.60606 25H12.2448C17.2569 25 21.4947 28.7103 22.1571 33.6784L23 40H13L11.5585 36.6365C10.613 34.4304 8.44379 33 6.04362 33H0Z" fill="#0047C1"></path><path d="M46 33L41.3939 25H33.7552C28.7431 25 24.5053 28.7103 23.8429 33.6784L23 40H33L34.4415 36.6365C35.387 34.4304 37.5562 33 39.9564 33H46Z" fill="#0047C1"></path><path d="M4.60606 25L18.9999 0H23L22.6032 9.52405C22.2608 17.7406 15.7455 24.3596 7.53537 24.8316L4.60606 25Z" fill="#0047C1"></path><path d="M41.3939 25L27.0001 0H23L23.3968 9.52405C23.7392 17.7406 30.2545 24.3596 38.4646 24.8316L41.3939 25Z" fill="#0047C1"></path></g>
        <g style="opacity: 1;" id="logotype" transform="translate(52, 3)"><path fill="#ffffff" d="M21.23 21.64L21.23 21.64Q21.23 21.67 21.24 21.69Q21.26 21.71 21.30 21.71L21.30 21.71L34.95 21.71L34.95 32L6.70 32Q6.70 29.83 6.70 27.66Q6.70 25.49 6.70 23.30Q6.70 21.11 6.70 18.95Q6.70 16.77 6.70 14.60L6.70 14.60Q6.70 12.40 6.70 10.18Q6.70 7.95 6.70 5.75L6.70 5.75L21.23 5.75Q21.23 7.74 21.23 9.72Q21.23 11.70 21.23 13.69Q21.23 15.69 21.23 17.67Q21.23 19.64 21.23 21.64ZM50.63 21.64L50.63 21.64Q50.63 21.67 50.64 21.69Q50.66 21.71 50.70 21.71L50.70 21.71L64.35 21.71L64.35 32L36.10 32Q36.10 29.83 36.10 27.66Q36.10 25.49 36.10 23.30Q36.10 21.11 36.10 18.95Q36.10 16.77 36.10 14.60L36.10 14.60Q36.10 12.40 36.10 10.18Q36.10 7.95 36.10 5.75L36.10 5.75L50.63 5.75Q50.63 7.74 50.63 9.72Q50.63 11.70 50.63 13.69Q50.63 15.69 50.63 17.67Q50.63 19.64 50.63 21.64ZM84.40 4.70L84.40 4.70Q81.18 4.70 78.50 5.17Q75.83 5.64 73.69 6.54Q71.56 7.43 69.96 8.67Q68.37 9.91 67.30 11.49Q66.24 13.06 65.69 14.92Q65.15 16.77 65.15 18.84L65.15 18.84Q65.15 20.41 65.48 21.95Q65.82 23.49 66.53 24.89Q67.25 26.29 68.35 27.54Q69.46 28.78 70.98 29.80Q72.50 30.81 74.50 31.53Q76.49 32.24 78.96 32.65Q81.43 33.05 84.40 33.05L84.40 33.05Q88.57 33.05 91.73 32.30Q94.90 31.55 97.18 30.20Q99.45 28.85 100.89 27.05Q102.32 25.24 102.99 23.16Q103.65 21.08 103.65 18.84L103.65 18.84Q103.65 14.71 101.52 11.52Q99.38 8.34 95.11 6.52Q90.84 4.70 84.40 4.70ZM84.44 15.83L84.44 15.83Q85.66 15.83 86.50 16.11Q87.34 16.39 87.83 16.83Q88.32 17.27 88.55 17.79Q88.78 18.31 88.78 18.84L88.78 18.84Q88.78 19.29 88.64 19.73Q88.50 20.17 88.16 20.57Q87.83 20.98 87.32 21.27Q86.82 21.57 86.10 21.74Q85.38 21.92 84.44 21.92L84.44 21.92Q82.83 21.92 81.85 21.46Q80.87 21.01 80.45 20.31Q80.03 19.61 80.03 18.88L80.03 18.88Q80.03 18.31 80.25 17.77Q80.48 17.23 80.99 16.79Q81.50 16.35 82.35 16.09Q83.21 15.83 84.44 15.83ZM123.64 4.70L123.64 4.70Q129.87 4.70 133.93 6.24Q137.99 7.78 140.16 10.42Q142.33 13.06 142.89 16.39L142.89 16.39L127.77 19.96Q128.15 18.63 127.80 17.65Q127.45 16.67 126.40 16.11Q125.35 15.55 123.60 15.55L123.60 15.55Q121.96 15.55 120.99 16.00Q120.03 16.46 119.63 17.14Q119.23 17.82 119.23 18.59L119.23 18.59Q119.23 19.16 119.47 19.66Q119.72 20.17 120.24 20.59Q120.77 21.01 121.61 21.25Q122.45 21.50 123.60 21.50L123.60 21.50Q125.39 21.50 126.37 21.10Q127.35 20.70 127.77 19.96L127.77 19.96Q127.21 22.02 126.65 24.13Q126.09 26.23 125.51 28.34Q124.93 30.46 124.37 32.52L124.37 32.52Q123.43 32.70 122.53 32.79Q121.64 32.88 120.42 32.88L120.42 32.88Q117.76 32.88 115.53 32.38Q113.31 31.89 111.53 31.00Q109.74 30.11 108.39 28.85Q107.05 27.59 106.15 26.03Q105.26 24.48 104.81 22.67Q104.35 20.87 104.35 18.91L104.35 18.91Q104.35 17.30 104.68 15.78Q105.02 14.25 105.73 12.84Q106.45 11.42 107.57 10.18Q108.69 8.93 110.21 7.94Q111.74 6.94 113.73 6.20Q115.73 5.47 118.19 5.08Q120.66 4.70 123.64 4.70ZM142.61 32L127.77 32Q127.77 29.97 127.77 27.98Q127.77 25.98 127.77 23.97Q127.77 21.95 127.77 19.96L127.77 19.96Q130.25 19.96 132.72 19.96Q135.19 19.96 137.67 19.96Q140.16 19.96 142.61 19.96L142.61 19.96L142.61 32ZM163.12 4.70L163.12 4.70Q159.90 4.70 157.22 5.17Q154.54 5.64 152.41 6.54Q150.27 7.43 148.68 8.67Q147.09 9.91 146.02 11.49Q144.95 13.06 144.41 14.92Q143.87 16.77 143.87 18.84L143.87 18.84Q143.87 20.41 144.20 21.95Q144.53 23.49 145.25 24.89Q145.97 26.29 147.07 27.54Q148.17 28.78 149.69 29.80Q151.22 30.81 153.21 31.53Q155.21 32.24 157.67 32.65Q160.14 33.05 163.12 33.05L163.12 33.05Q167.28 33.05 170.45 32.30Q173.62 31.55 175.89 30.20Q178.17 28.85 179.60 27.05Q181.04 25.24 181.70 23.16Q182.37 21.08 182.37 18.84L182.37 18.84Q182.37 14.71 180.23 11.52Q178.10 8.34 173.83 6.52Q169.56 4.70 163.12 4.70ZM163.15 15.83L163.15 15.83Q164.38 15.83 165.22 16.11Q166.06 16.39 166.55 16.83Q167.04 17.27 167.26 17.79Q167.49 18.31 167.49 18.84L167.49 18.84Q167.49 19.29 167.35 19.73Q167.21 20.17 166.88 20.57Q166.55 20.98 166.04 21.27Q165.53 21.57 164.81 21.74Q164.10 21.92 163.15 21.92L163.15 21.92Q161.54 21.92 160.56 21.46Q159.58 21.01 159.16 20.31Q158.74 19.61 158.74 18.88L158.74 18.88Q158.74 18.31 158.97 17.77Q159.20 17.23 159.70 16.79Q160.21 16.35 161.07 16.09Q161.93 15.83 163.15 15.83ZM195.84 32L183.07 32L183.07 22.16L195.84 22.16L195.84 32ZM217.93 20.24L217.93 5.75L231.40 5.75Q231.40 7.04 231.40 8.36Q231.40 9.67 231.40 10.98Q231.40 12.29 231.40 13.61Q231.40 14.92 231.40 16.23Q231.40 17.54 231.40 18.88L231.40 18.88Q231.40 22.16 231.40 25.44Q231.40 28.71 231.40 32L231.40 32L215.20 32L210.79 19.40Q210.79 19.40 210.79 19.38Q210.79 19.36 210.77 19.36Q210.75 19.36 210.73 19.36Q210.72 19.36 210.72 19.38Q210.72 19.40 210.72 19.40L210.72 19.40Q210.72 22.48 210.72 25.70Q210.72 28.92 210.72 32L210.72 32L197.24 32Q197.24 29.38 197.24 26.75Q197.24 24.13 197.24 21.50Q197.24 18.88 197.24 16.25Q197.24 13.63 197.24 11.00Q197.24 8.37 197.24 5.75L197.24 5.75L212.92 5.75L217.86 20.27Q217.86 20.27 217.86 20.27Q217.86 20.27 217.87 20.27Q217.89 20.27 217.91 20.27Q217.93 20.27 217.93 20.26Q217.93 20.24 217.93 20.24L217.93 20.24ZM232.80 5.75L253.66 5.75Q256.95 5.75 259.49 6.47Q262.03 7.18 263.85 8.44Q265.67 9.70 266.82 11.37Q267.98 13.03 268.54 14.92Q269.10 16.81 269.10 18.77L269.10 18.77Q269.10 21.25 268.20 23.62Q267.31 25.98 265.44 27.87Q263.57 29.76 260.64 30.88Q257.72 32 253.66 32L253.66 32L232.80 32Q232.80 29.76 232.80 27.54Q232.80 25.31 232.80 23.09Q232.80 20.87 232.80 18.65Q232.80 16.42 232.80 14.18L232.80 14.18Q232.80 12.08 232.80 9.97Q232.80 7.85 232.80 5.75L232.80 5.75ZM250.86 15.83L250.86 15.83L246.70 15.83Q246.70 15.83 246.68 15.83Q246.66 15.83 246.66 15.83Q246.66 15.83 246.66 15.85Q246.66 15.86 246.66 15.90L246.66 15.90L246.66 21.85Q246.66 21.88 246.66 21.90Q246.66 21.92 246.66 21.92Q246.66 21.92 246.68 21.92Q246.70 21.92 246.70 21.92L246.70 21.92L250.93 21.92Q251.70 21.92 252.31 21.67Q252.93 21.43 253.35 21.01Q253.77 20.59 253.99 20.03Q254.22 19.47 254.22 18.88L254.22 18.88Q254.22 18.03 253.82 17.34Q253.42 16.63 252.68 16.23Q251.95 15.83 250.86 15.83ZM289.05 4.70L289.05 4.70Q285.83 4.70 283.15 5.17Q280.47 5.64 278.34 6.54Q276.20 7.43 274.61 8.67Q273.02 9.91 271.95 11.49Q270.88 13.06 270.34 14.92Q269.80 16.77 269.80 18.84L269.80 18.84Q269.80 20.41 270.13 21.95Q270.46 23.49 271.18 24.89Q271.90 26.29 273.00 27.54Q274.10 28.78 275.62 29.80Q277.15 30.81 279.14 31.53Q281.14 32.24 283.60 32.65Q286.07 33.05 289.05 33.05L289.05 33.05Q293.21 33.05 296.38 32.30Q299.55 31.55 301.82 30.20Q304.10 28.85 305.53 27.05Q306.97 25.24 307.63 23.16Q308.30 21.08 308.30 18.84L308.30 18.84Q308.30 14.71 306.16 11.52Q304.03 8.34 299.76 6.52Q295.49 4.70 289.05 4.70ZM289.08 15.83L289.08 15.83Q290.31 15.83 291.15 16.11Q291.99 16.39 292.48 16.83Q292.97 17.27 293.19 17.79Q293.42 18.31 293.42 18.84L293.42 18.84Q293.42 19.29 293.28 19.73Q293.14 20.17 292.81 20.57Q292.48 20.98 291.97 21.27Q291.46 21.57 290.74 21.74Q290.03 21.92 289.08 21.92L289.08 21.92Q287.47 21.92 286.49 21.46Q285.51 21.01 285.09 20.31Q284.67 19.61 284.67 18.88L284.67 18.88Q284.67 18.31 284.90 17.77Q285.13 17.23 285.63 16.79Q286.14 16.35 287.00 16.09Q287.86 15.83 289.08 15.83ZM330.03 20.24L330.03 5.75L343.51 5.75Q343.51 7.04 343.51 8.36Q343.51 9.67 343.51 10.98Q343.51 12.29 343.51 13.61Q343.51 14.92 343.51 16.23Q343.51 17.54 343.51 18.88L343.51 18.88Q343.51 22.16 343.51 25.44Q343.51 28.71 343.51 32L343.51 32L327.30 32L322.89 19.40Q322.89 19.40 322.89 19.38Q322.89 19.36 322.87 19.36Q322.86 19.36 322.84 19.36Q322.82 19.36 322.82 19.38Q322.82 19.40 322.82 19.40L322.82 19.40Q322.82 22.48 322.82 25.70Q322.82 28.92 322.82 32L322.82 32L309.35 32Q309.35 29.38 309.35 26.75Q309.35 24.13 309.35 21.50Q309.35 18.88 309.35 16.25Q309.35 13.63 309.35 11.00Q309.35 8.37 309.35 5.75L309.35 5.75L325.03 5.75L329.96 20.27Q329.96 20.27 329.96 20.27Q329.96 20.27 329.98 20.27Q330.00 20.27 330.01 20.27Q330.03 20.27 330.03 20.26Q330.03 20.24 330.03 20.24L330.03 20.24ZM363.84 4.70L363.84 4.70Q370.07 4.70 374.13 6.24Q378.19 7.78 380.36 10.42Q382.53 13.06 383.09 16.39L383.09 16.39L367.97 19.96Q368.36 18.63 368.01 17.65Q367.66 16.67 366.61 16.11Q365.56 15.55 363.81 15.55L363.81 15.55Q362.16 15.55 361.20 16.00Q360.24 16.46 359.83 17.14Q359.43 17.82 359.43 18.59L359.43 18.59Q359.43 19.16 359.68 19.66Q359.92 20.17 360.45 20.59Q360.97 21.01 361.81 21.25Q362.65 21.50 363.81 21.50L363.81 21.50Q365.59 21.50 366.57 21.10Q367.55 20.70 367.97 19.96L367.97 19.96Q367.41 22.02 366.85 24.13Q366.29 26.23 365.71 28.34Q365.14 30.46 364.58 32.52L364.58 32.52Q363.63 32.70 362.74 32.79Q361.85 32.88 360.62 32.88L360.62 32.88Q357.96 32.88 355.74 32.38Q353.52 31.89 351.73 31.00Q349.95 30.11 348.60 28.85Q347.25 27.59 346.36 26.03Q345.47 24.48 345.01 22.67Q344.56 20.87 344.56 18.91L344.56 18.91Q344.56 17.30 344.89 15.78Q345.22 14.25 345.94 12.84Q346.66 11.42 347.78 10.18Q348.90 8.93 350.42 7.94Q351.94 6.94 353.94 6.20Q355.93 5.47 358.40 5.08Q360.87 4.70 363.84 4.70ZM382.81 32L367.97 32Q367.97 29.97 367.97 27.98Q367.97 25.98 367.97 23.97Q367.97 21.95 367.97 19.96L367.97 19.96Q370.46 19.96 372.92 19.96Q375.39 19.96 377.88 19.96Q380.36 19.96 382.81 19.96L382.81 19.96L382.81 32ZM391.21 30.81L391.21 19.85Q391.70 20.13 392.23 20.36Q392.75 20.59 393.31 20.70Q393.87 20.80 394.36 20.80L394.36 20.80Q395.45 20.80 396.20 20.27Q396.95 19.75 396.95 18.63L396.95 18.63Q396.95 18.35 396.95 17.41Q396.95 16.46 396.95 15.09Q396.95 13.73 396.95 12.22Q396.95 10.72 396.95 9.35Q396.95 7.99 396.95 7.01Q396.95 6.03 396.95 5.75L396.95 5.75L411.48 5.75Q411.48 7.11 411.48 9.32Q411.48 11.52 411.48 13.83L411.48 13.83Q411.48 14.95 411.48 16.04Q411.48 17.13 411.48 18.09Q411.48 19.05 411.48 19.84Q411.48 20.63 411.48 21.13Q411.48 21.64 411.48 21.81L411.48 21.81Q411.48 24.86 410.46 26.94Q409.45 29.02 407.73 30.29Q406.02 31.55 403.88 32.10Q401.75 32.66 399.51 32.66L399.51 32.66Q397.13 32.66 395.03 32.24Q392.93 31.82 391.21 30.81L391.21 30.81ZM428.28 33.05L428.28 33.05Q426.11 33.05 424.07 32.73Q422.05 32.42 420.30 31.77Q418.55 31.13 417.11 30.14Q415.68 29.16 414.66 27.85Q413.65 26.54 413.09 24.88Q412.53 23.21 412.53 21.18L412.53 21.18Q412.53 18.80 413.31 16.90Q414.10 14.99 415.55 13.55Q417.00 12.12 418.97 11.16Q420.93 10.19 423.29 9.72Q425.65 9.25 428.28 9.25L428.28 9.25Q431.56 9.25 434.42 10.00Q437.27 10.75 439.42 12.24Q441.57 13.73 442.80 15.97Q444.03 18.21 444.03 21.18L444.03 21.18Q444.03 24.16 442.80 26.38Q441.57 28.61 439.42 30.09Q437.27 31.58 434.42 32.31Q431.56 33.05 428.28 33.05ZM428.31 23.77L428.31 23.77Q430.48 23.77 431.39 22.93Q432.30 22.09 432.30 21.11L432.30 21.11Q432.30 20.66 432.09 20.20Q431.88 19.75 431.43 19.36Q430.97 18.98 430.20 18.75Q429.43 18.52 428.31 18.52L428.31 18.52Q427.19 18.52 426.40 18.75Q425.62 18.98 425.14 19.36Q424.67 19.75 424.46 20.20Q424.25 20.66 424.25 21.15L424.25 21.15Q424.25 21.64 424.46 22.11Q424.67 22.59 425.16 22.95Q425.65 23.32 426.42 23.55Q427.19 23.77 428.31 23.77ZM445.07 10.30L457.19 10.30Q457.19 12.40 457.19 14.52Q457.19 16.63 457.19 18.75Q457.19 20.87 457.19 23.00L457.19 23.00Q457.19 25.24 457.19 27.48Q457.19 29.73 457.19 32L457.19 32L445.07 32Q445.07 28.54 445.07 25.07Q445.07 21.60 445.07 18.14L445.07 18.14Q445.07 16.18 445.07 14.22Q445.07 12.26 445.07 10.30L445.07 10.30ZM457.15 23.67L457.15 23.67L459.04 14.25Q459.36 12.75 460.28 11.75Q461.21 10.75 462.47 10.23Q463.73 9.70 465.06 9.58Q466.39 9.46 467.51 9.69Q468.63 9.91 469.30 10.44L469.30 10.44L466.63 23.46Q465.62 22.62 464.17 22.30Q462.72 21.99 461.25 22.08Q459.77 22.16 458.65 22.59Q457.54 23.00 457.15 23.67ZM501.39 32L489.28 32Q489.28 30.11 489.28 28.24Q489.28 26.36 489.28 24.49Q489.28 22.62 489.28 20.77L489.28 20.77Q489.28 20.10 488.93 19.61Q488.58 19.12 487.99 18.80Q487.39 18.49 486.66 18.33Q485.92 18.17 485.12 18.17L485.12 18.17Q483.09 18.17 482.09 18.98Q481.09 19.78 481.09 20.77L481.09 20.77Q481.09 21.50 481.53 22.09Q481.97 22.69 482.86 23.06Q483.75 23.42 485.12 23.42L485.12 23.42Q486.59 23.42 487.74 22.90Q488.89 22.38 489.25 21.18L489.25 21.18L486.44 32Q485.32 32.28 484.31 32.40Q483.30 32.52 481.97 32.52L481.97 32.52Q479.27 32.52 476.89 31.77Q474.51 31.02 472.71 29.55Q470.91 28.08 469.87 25.98Q468.84 23.88 468.84 21.18L468.84 21.18Q468.84 18.88 469.57 17.04Q470.31 15.20 471.59 13.83Q472.87 12.47 474.55 11.56Q476.23 10.65 478.13 10.21Q480.04 9.77 482 9.77L482 9.77Q482.81 9.77 483.64 9.84Q484.49 9.91 485.29 10.05Q486.10 10.19 486.81 10.44Q487.53 10.68 488.14 11.03Q488.75 11.38 489.21 11.84L489.21 11.84Q489.25 11.87 489.26 11.86Q489.28 11.84 489.28 11.80L489.28 11.80Q489.28 10.40 489.28 8.78Q489.28 7.15 489.28 5.75L489.28 5.75L501.39 5.75Q501.39 9.11 501.39 12.49Q501.39 15.86 501.39 19.23L501.39 19.23Q501.39 22.41 501.39 25.59Q501.39 28.78 501.39 32L501.39 32ZM523.75 36.20L511.89 36.20Q512.52 35.50 513.12 34.80Q513.71 34.10 514.32 33.40Q514.94 32.70 515.53 32L515.53 32L508.99 32Q507.83 28.36 506.68 24.75Q505.52 21.15 504.37 17.53Q503.21 13.90 502.06 10.30L502.06 10.30L514.90 10.30Q515.53 14.04 516.14 17.79Q516.75 21.53 517.38 25.28L517.38 25.28Q517.38 25.28 517.40 25.38Q517.42 25.49 517.42 25.49L517.42 25.49Q517.42 25.49 517.44 25.44Q517.46 25.38 517.46 25.35Q517.46 25.31 517.46 25.31L517.46 25.31Q517.91 22.80 518.33 20.29Q518.75 17.79 519.19 15.29Q519.63 12.78 520.05 10.30L520.05 10.30L532.23 10.30Q530.83 14.64 529.41 18.95Q527.99 23.25 526.59 27.55Q525.19 31.86 523.75 36.20L523.75 36.20Z"></path></g>
        
      </svg>